<mxfile host="app.diagrams.net" agent="Mozilla/5.0 (Windows NT 10.0; Win64; x64) AppleWebKit/537.36 (KHTML, like Gecko) Chrome/135.0.0.0 Safari/537.36" version="26.2.13">
  <diagram name="Page-1" id="DwPrvFNdgm7rfhZKOU_1">
    <mxGraphModel dx="884" dy="518" grid="1" gridSize="10" guides="1" tooltips="1" connect="1" arrows="1" fold="1" page="1" pageScale="1" pageWidth="850" pageHeight="1100" math="0" shadow="0">
      <root>
        <mxCell id="0" />
        <mxCell id="1" parent="0" />
        <mxCell id="V5rSSVviSV1b_xlAsAF--1" value="&lt;div&gt;&lt;br&gt;&lt;/div&gt;User" style="shape=actor;whiteSpace=wrap;html=1;" vertex="1" parent="1">
          <mxGeometry x="70" y="100" width="40" height="60" as="geometry" />
        </mxCell>
        <mxCell id="V5rSSVviSV1b_xlAsAF--6" value="" style="edgeStyle=orthogonalEdgeStyle;rounded=0;orthogonalLoop=1;jettySize=auto;html=1;" edge="1" parent="1" source="V5rSSVviSV1b_xlAsAF--2" target="V5rSSVviSV1b_xlAsAF--3">
          <mxGeometry relative="1" as="geometry" />
        </mxCell>
        <mxCell id="V5rSSVviSV1b_xlAsAF--2" value="&lt;div&gt;Browser (HTML/CSS/JS)&lt;/div&gt;" style="rounded=0;whiteSpace=wrap;html=1;" vertex="1" parent="1">
          <mxGeometry x="210" y="100" width="120" height="60" as="geometry" />
        </mxCell>
        <mxCell id="V5rSSVviSV1b_xlAsAF--3" value="&lt;br&gt;&lt;div&gt;Django (Backend) on Windows Server&lt;/div&gt;&lt;div&gt;&lt;br/&gt;&lt;/div&gt;" style="rounded=0;whiteSpace=wrap;html=1;" vertex="1" parent="1">
          <mxGeometry x="410" y="100" width="120" height="60" as="geometry" />
        </mxCell>
        <mxCell id="V5rSSVviSV1b_xlAsAF--5" value="" style="endArrow=classic;html=1;rounded=0;" edge="1" parent="1">
          <mxGeometry width="50" height="50" relative="1" as="geometry">
            <mxPoint x="120" y="129.5" as="sourcePoint" />
            <mxPoint x="200" y="129.5" as="targetPoint" />
            <Array as="points">
              <mxPoint x="160" y="129.5" />
            </Array>
          </mxGeometry>
        </mxCell>
        <mxCell id="V5rSSVviSV1b_xlAsAF--7" value="" style="endArrow=classic;html=1;rounded=0;" edge="1" parent="1">
          <mxGeometry width="50" height="50" relative="1" as="geometry">
            <mxPoint x="540" y="129.5" as="sourcePoint" />
            <mxPoint x="620" y="129.5" as="targetPoint" />
            <Array as="points" />
          </mxGeometry>
        </mxCell>
        <mxCell id="V5rSSVviSV1b_xlAsAF--8" value="" style="endArrow=classic;startArrow=classic;html=1;rounded=0;" edge="1" parent="1">
          <mxGeometry width="50" height="50" relative="1" as="geometry">
            <mxPoint x="270" y="240" as="sourcePoint" />
            <mxPoint x="270" y="170" as="targetPoint" />
          </mxGeometry>
        </mxCell>
        <mxCell id="V5rSSVviSV1b_xlAsAF--9" value="" style="endArrow=classic;startArrow=classic;html=1;rounded=0;" edge="1" parent="1">
          <mxGeometry width="50" height="50" relative="1" as="geometry">
            <mxPoint x="470" y="240" as="sourcePoint" />
            <mxPoint x="470" y="170" as="targetPoint" />
          </mxGeometry>
        </mxCell>
        <mxCell id="V5rSSVviSV1b_xlAsAF--12" value="PostgreSQL (Database)" style="shape=cylinder3;whiteSpace=wrap;html=1;boundedLbl=1;backgroundOutline=1;size=15;" vertex="1" parent="1">
          <mxGeometry x="620" y="90" width="120" height="80" as="geometry" />
        </mxCell>
        <mxCell id="V5rSSVviSV1b_xlAsAF--13" value="Static files: Scripts, XMLS, WI" style="rounded=0;whiteSpace=wrap;html=1;" vertex="1" parent="1">
          <mxGeometry x="210" y="250" width="120" height="60" as="geometry" />
        </mxCell>
      </root>
    </mxGraphModel>
  </diagram>
</mxfile>
